<svg xmlns="http://www.w3.org/2000/svg" width="46" height="46" viewBox="0 0 46 46"><title>Instagram</title><path d="M45.264,2.737A5.678,5.678,0,0,0,41.1,1H6.9A5.68,5.68,0,0,0,2.737,2.737,5.677,5.677,0,0,0,1,6.9V41.1a5.677,5.677,0,0,0,1.737,4.163A5.679,5.679,0,0,0,6.9,47H41.1A5.932,5.932,0,0,0,47,41.1V6.9A5.678,5.678,0,0,0,45.264,2.737ZM17.517,17.576a9.037,9.037,0,0,1,6.514-2.62,9.074,9.074,0,0,1,6.544,2.621,8.756,8.756,0,0,1,0,12.668,9.072,9.072,0,0,1-6.544,2.621,9.038,9.038,0,0,1-6.514-2.621A8.755,8.755,0,0,1,17.517,17.576Zm24.273,22.3a1.744,1.744,0,0,1-.539,1.3,1.784,1.784,0,0,1-1.288.524H7.948a1.791,1.791,0,0,1-1.827-1.827V20.466h4.222a12.892,12.892,0,0,0-.6,3.923A13.151,13.151,0,0,0,13.938,34.2a13.993,13.993,0,0,0,10.093,4.058A14.4,14.4,0,0,0,31.219,36.4a13.979,13.979,0,0,0,5.211-5.047,13.269,13.269,0,0,0,1.917-6.963,12.9,12.9,0,0,0-.6-3.923h4.043V39.873h0Zm0-26.744A2.046,2.046,0,0,1,39.723,15.2H34.513a2.045,2.045,0,0,1-2.066-2.066V8.188a2.011,2.011,0,0,1,.6-1.453,1.972,1.972,0,0,1,1.467-.614h5.211a1.971,1.971,0,0,1,1.468.614,2.009,2.009,0,0,1,.6,1.453v4.941Z" transform="translate(-1 -1)"></path></svg>