<svg xmlns="http://www.w3.org/2000/svg" width="46" height="44" viewBox="0 0 46 44"><title>LinkedIn</title><path d="M1.569,16.3h9.883V45.985H1.569V16.3Zm42.317,2.711a10.635,10.635,0,0,0-8.235-3.4,11.875,11.875,0,0,0-3.43.464,7.783,7.783,0,0,0-2.605,1.3,11.16,11.16,0,0,0-2.86,3.142V16.3H16.9l0.03,1.438q0.03,1.438.03,8.866T16.9,45.985h9.853V29.421a7.242,7.242,0,0,1,.329-2.426,6.365,6.365,0,0,1,1.9-2.561,4.849,4.849,0,0,1,3.16-1.034,4.26,4.26,0,0,1,3.789,1.782,8.667,8.667,0,0,1,1.213,4.927V45.984H47V28.972Q47,22.412,43.886,19.014ZM6.57,2.015A5.637,5.637,0,0,0,2.542,3.468,4.823,4.823,0,0,0,1,7.137a4.909,4.909,0,0,0,1.5,3.654A5.4,5.4,0,0,0,6.45,12.258H6.51a5.642,5.642,0,0,0,4.058-1.468,4.742,4.742,0,0,0,1.512-3.654,5,5,0,0,0-1.527-3.669A5.475,5.475,0,0,0,6.57,2.015Z" transform="translate(-1 -2)"></path></svg>